<svg width="32" height="32" viewBox="0 0 32 32" fill="none" xmlns="http://www.w3.org/2000/svg">
<path d="M15.8281 31.8594C17.9531 31.8594 19.9531 31.4531 21.8281 30.6406C23.7031 29.8385 25.3542 28.724 26.7812 27.2969C28.2083 25.8698 29.3281 24.2188 30.1406 22.3438C30.9531 20.4688 31.3594 18.4635 31.3594 16.3281C31.3594 14.2031 30.9583 12.2031 30.1562 10.3281C29.3438 8.45312 28.224 6.80208 26.7969 5.375C25.3594 3.94792 23.7031 2.82812 21.8281 2.01562C19.9531 1.20312 17.9583 0.796875 15.8438 0.796875C13.7083 0.796875 11.7031 1.20312 9.82812 2.01562C7.95312 2.82812 6.30208 3.94792 4.875 5.375C3.4375 6.80208 2.31771 8.45312 1.51562 10.3281C0.703125 12.2031 0.296875 14.2031 0.296875 16.3281C0.296875 18.4635 0.703125 20.4688 1.51562 22.3438C2.31771 24.2188 3.43229 25.8698 4.85938 27.2969C6.28646 28.724 7.9375 29.8385 9.8125 30.6406C11.6875 31.4531 13.6927 31.8594 15.8281 31.8594ZM12.75 23.7812C12.4375 23.4792 12.2917 23.125 12.3125 22.7188C12.3229 22.3021 12.4688 21.9531 12.75 21.6719L18.4531 16.3281L12.75 10.9844C12.4583 10.7135 12.3177 10.3698 12.3281 9.95312C12.3281 9.52604 12.4792 9.17188 12.7812 8.89062C13.0625 8.63021 13.401 8.5 13.7969 8.5C14.1927 8.5 14.5365 8.64062 14.8281 8.92188L20.8438 14.5781C21.1875 14.8802 21.4167 15.25 21.5312 15.6875C21.6354 16.1146 21.6302 16.5469 21.5156 16.9844C21.401 17.4115 21.1771 17.7812 20.8438 18.0938L14.8281 23.75C14.5573 24.0104 14.2083 24.1458 13.7812 24.1562C13.3438 24.1562 13 24.0312 12.75 23.7812Z" fill="#8F8F8F"/>
</svg>
