<svg width="32" height="32" viewBox="0 0 32 32" fill="none" xmlns="http://www.w3.org/2000/svg">
<path d="M16.1719 31.8594C14.0469 31.8594 12.0469 31.4531 10.1719 30.6406C8.29688 29.8385 6.64583 28.724 5.21875 27.2969C3.79167 25.8698 2.67188 24.2188 1.85938 22.3438C1.04688 20.4688 0.640625 18.4635 0.640625 16.3281C0.640625 14.2031 1.04167 12.2031 1.84375 10.3281C2.65625 8.45312 3.77604 6.80208 5.20312 5.375C6.64062 3.94792 8.29688 2.82812 10.1719 2.01562C12.0469 1.20312 14.0417 0.796875 16.1562 0.796875C18.2917 0.796875 20.2969 1.20312 22.1719 2.01562C24.0469 2.82812 25.6979 3.94792 27.125 5.375C28.5625 6.80208 29.6823 8.45312 30.4844 10.3281C31.2969 12.2031 31.7031 14.2031 31.7031 16.3281C31.7031 18.4635 31.2969 20.4688 30.4844 22.3438C29.6823 24.2188 28.5677 25.8698 27.1406 27.2969C25.7135 28.724 24.0625 29.8385 22.1875 30.6406C20.3125 31.4531 18.3073 31.8594 16.1719 31.8594ZM19.25 23.7812C19.5625 23.4792 19.7083 23.125 19.6875 22.7188C19.6771 22.3021 19.5312 21.9531 19.25 21.6719L13.5469 16.3281L19.25 10.9844C19.5417 10.7135 19.6823 10.3698 19.6719 9.95312C19.6719 9.52604 19.5208 9.17188 19.2188 8.89062C18.9375 8.63021 18.599 8.5 18.2031 8.5C17.8073 8.5 17.4635 8.64062 17.1719 8.92188L11.1562 14.5781C10.8125 14.8802 10.5833 15.25 10.4688 15.6875C10.3646 16.1146 10.3698 16.5469 10.4844 16.9844C10.599 17.4115 10.8229 17.7812 11.1562 18.0938L17.1719 23.75C17.4427 24.0104 17.7917 24.1458 18.2188 24.1562C18.6562 24.1562 19 24.0312 19.25 23.7812Z" fill="#8F8F8F"/>
</svg>
