<svg width="20" height="18" viewBox="0 0 20 18" fill="none" xmlns="http://www.w3.org/2000/svg">
<g clip-path="url(#clip0_104_46)">
<path d="M13.7043 5.39999C13.7043 6.35478 13.3404 7.27045 12.6925 7.94558C12.0446 8.62071 11.166 8.99999 10.2497 8.99999C9.33353 8.99999 8.45486 8.62071 7.807 7.94558C7.15915 7.27045 6.79519 6.35478 6.79519 5.39999M3.02388 4.86124L2.41933 12.4213C2.28946 14.0453 2.22452 14.8574 2.48796 15.4838C2.71941 16.0341 3.12044 16.4884 3.62753 16.7744C4.20469 17.1 4.98661 17.1 6.55047 17.1H13.949C15.5128 17.1 16.2948 17.1 16.8719 16.7744C17.3791 16.4884 17.78 16.0341 18.0115 15.4838C18.2749 14.8574 18.21 14.0453 18.0802 12.4213L17.4756 4.86124C17.3639 3.46387 17.308 2.76518 17.0111 2.23637C16.7496 1.77069 16.3601 1.39734 15.8932 1.16446C15.3628 0.899995 14.69 0.899995 13.3445 0.899995L7.15502 0.899994C5.80945 0.899994 5.13668 0.899994 4.60631 1.16445C4.13928 1.39733 3.74992 1.77069 3.48843 2.23637C3.19149 2.76518 3.13562 3.46387 3.02388 4.86124Z" stroke="black" stroke-width="1.76326" stroke-linecap="round" stroke-linejoin="round"/>
</g>
<defs>
<clipPath id="clip0_104_46">
<rect width="19" height="18" fill="white" transform="translate(0.75)"/>
</clipPath>
</defs>
</svg>
