<svg width="14" height="17" viewBox="0 0 14 17" fill="none" xmlns="http://www.w3.org/2000/svg">
<path d="M3.75977 3.73242H5.25V2.36523C5.25 2.21484 5.30013 2.09408 5.40039 2.00293C5.50065 1.91178 5.63509 1.86621 5.80371 1.86621H8.18945C8.35807 1.86621 8.49251 1.91178 8.59277 2.00293C8.69303 2.09408 8.74316 2.21484 8.74316 2.36523V3.73242H10.2334V2.31055C10.2334 1.75456 10.0648 1.32389 9.72754 1.01855C9.3903 0.708659 8.91406 0.553711 8.29883 0.553711H5.69434C5.0791 0.553711 4.60286 0.708659 4.26562 1.01855C3.92839 1.32389 3.75977 1.75456 3.75977 2.31055V3.73242ZM0.827148 4.73047H13.1729C13.3825 4.73047 13.5557 4.66439 13.6924 4.53223C13.8291 4.39551 13.8975 4.22461 13.8975 4.01953C13.8975 3.81445 13.8268 3.64583 13.6855 3.51367C13.5488 3.37695 13.3779 3.30859 13.1729 3.30859H0.827148C0.626628 3.30859 0.455729 3.37695 0.314453 3.51367C0.173177 3.64583 0.102539 3.81445 0.102539 4.01953C0.102539 4.22461 0.173177 4.39551 0.314453 4.53223C0.455729 4.66439 0.626628 4.73047 0.827148 4.73047ZM3.84863 16.249H10.1514C10.721 16.249 11.1745 16.0941 11.5117 15.7842C11.849 15.4743 12.029 15.0322 12.0518 14.458L12.5098 4.60059H11.0195L10.582 14.1436C10.5775 14.3486 10.5182 14.5104 10.4043 14.6289C10.2949 14.7474 10.1468 14.8066 9.95996 14.8066H4.04004C3.85775 14.8066 3.70964 14.7451 3.5957 14.6221C3.48633 14.5036 3.42708 14.3441 3.41797 14.1436L2.95996 4.60059H1.49023L1.95508 14.4648C1.97786 15.0391 2.1556 15.4788 2.48828 15.7842C2.82552 16.0941 3.27897 16.249 3.84863 16.249ZM5.00391 13.7812C5.16341 13.7812 5.29102 13.7357 5.38672 13.6445C5.48242 13.5488 5.52799 13.4235 5.52344 13.2686L5.31836 6.2959C5.31836 6.14551 5.26823 6.02474 5.16797 5.93359C5.06771 5.83789 4.9401 5.79004 4.78516 5.79004C4.62565 5.79004 4.49805 5.83789 4.40234 5.93359C4.30664 6.0293 4.26107 6.15234 4.26562 6.30273L4.4707 13.2754C4.47526 13.4303 4.52539 13.5534 4.62109 13.6445C4.72135 13.7357 4.84896 13.7812 5.00391 13.7812ZM7 13.7812C7.15951 13.7812 7.28711 13.7357 7.38281 13.6445C7.48307 13.5534 7.5332 13.4326 7.5332 13.2822V6.2959C7.5332 6.14551 7.48307 6.02474 7.38281 5.93359C7.28711 5.83789 7.15951 5.79004 7 5.79004C6.84505 5.79004 6.71745 5.83789 6.61719 5.93359C6.52148 6.02474 6.47363 6.14551 6.47363 6.2959V13.2822C6.47363 13.4326 6.52148 13.5534 6.61719 13.6445C6.71745 13.7357 6.84505 13.7812 7 13.7812ZM9.00293 13.7812C9.15332 13.7812 9.27637 13.7357 9.37207 13.6445C9.47233 13.5534 9.52474 13.4303 9.5293 13.2754L9.73438 6.30273C9.73893 6.15234 9.69336 6.0293 9.59766 5.93359C9.50651 5.83789 9.37891 5.79004 9.21484 5.79004C9.0599 5.79004 8.93229 5.83789 8.83203 5.93359C8.73633 6.02474 8.6862 6.14779 8.68164 6.30273L8.4834 13.2686C8.47884 13.4235 8.52214 13.5488 8.61328 13.6445C8.70898 13.7357 8.83887 13.7812 9.00293 13.7812Z" fill="#344054"/>
</svg>
