<svg width="82" height="26" viewBox="0 0 82 26" fill="none" xmlns="http://www.w3.org/2000/svg">
<path d="M7.20257 7.53513C7.52879 6.87468 8.47101 6.87468 8.79724 7.53513L10.1439 10.2649C10.2737 10.5271 10.5243 10.7094 10.8132 10.7511L13.8257 11.1885C14.5555 11.2951 14.8461 12.1911 14.319 12.7049L12.1386 14.8302C11.9297 15.0338 11.8337 15.328 11.8835 15.6169L12.3981 18.6169C12.5226 19.3431 11.7599 19.8969 11.1083 19.5538L8.41324 18.1378C8.15457 18.0009 7.84524 18.0009 7.58657 18.1378L4.89146 19.5538C4.2399 19.8969 3.47724 19.3431 3.60168 18.6169L4.11635 15.6169C4.16612 15.328 4.07012 15.0338 3.86124 14.8302L1.68079 12.7049C1.15368 12.1911 1.44435 11.2951 2.17412 11.1885L5.18657 10.7511C5.47546 10.7094 5.72612 10.5271 5.8559 10.2649L7.20257 7.53513Z" fill="#DDDDDD"/>
<path d="M23.2026 7.53513C23.5288 6.87468 24.471 6.87468 24.7972 7.53513L26.1439 10.2649C26.2737 10.5271 26.5243 10.7094 26.8132 10.7511L29.8257 11.1885C30.5555 11.2951 30.8461 12.1911 30.319 12.7049L28.1386 14.8302C27.9297 15.0338 27.8337 15.328 27.8835 15.6169L28.3981 18.6169C28.5226 19.3431 27.7599 19.8969 27.1083 19.5538L24.4132 18.1378C24.1546 18.0009 23.8452 18.0009 23.5866 18.1378L20.8915 19.5538C20.2399 19.8969 19.4772 19.3431 19.6017 18.6169L20.1163 15.6169C20.1661 15.328 20.0701 15.0338 19.8612 14.8302L17.6808 12.7049C17.1537 12.1911 17.4443 11.2951 18.1741 11.1885L21.1866 10.7511C21.4755 10.7094 21.7261 10.5271 21.8559 10.2649L23.2026 7.53513Z" fill="#DDDDDD"/>
<path d="M39.2026 7.53513C39.5288 6.87468 40.471 6.87468 40.7972 7.53513L42.1439 10.2649C42.2737 10.5271 42.5243 10.7094 42.8132 10.7511L45.8257 11.1885C46.5555 11.2951 46.8461 12.1911 46.319 12.7049L44.1386 14.8302C43.9297 15.0338 43.8337 15.328 43.8835 15.6169L44.3981 18.6169C44.5226 19.3431 43.7599 19.8969 43.1083 19.5538L40.4132 18.1378C40.1546 18.0009 39.8452 18.0009 39.5866 18.1378L36.8915 19.5538C36.2399 19.8969 35.4772 19.3431 35.6017 18.6169L36.1163 15.6169C36.1661 15.328 36.0701 15.0338 35.8612 14.8302L33.6808 12.7049C33.1537 12.1911 33.4443 11.2951 34.1741 11.1885L37.1866 10.7511C37.4755 10.7094 37.7261 10.5271 37.8559 10.2649L39.2026 7.53513Z" fill="#DDDDDD"/>
<path d="M55.2026 7.53513C55.5288 6.87468 56.471 6.87468 56.7972 7.53513L58.1439 10.2649C58.2737 10.5271 58.5243 10.7094 58.8132 10.7511L61.8257 11.1885C62.5555 11.2951 62.8461 12.1911 62.319 12.7049L60.1386 14.8302C59.9297 15.0338 59.8337 15.328 59.8835 15.6169L60.3981 18.6169C60.5226 19.3431 59.7599 19.8969 59.1083 19.5538L56.4132 18.1378C56.1546 18.0009 55.8452 18.0009 55.5866 18.1378L52.8915 19.5538C52.2399 19.8969 51.4772 19.3431 51.6017 18.6169L52.1163 15.6169C52.1661 15.328 52.0701 15.0338 51.8612 14.8302L49.6808 12.7049C49.1537 12.1911 49.4443 11.2951 50.1741 11.1885L53.1866 10.7511C53.4755 10.7094 53.7261 10.5271 53.8559 10.2649L55.2026 7.53513Z" fill="#DDDDDD"/>
<path d="M71.2026 7.53513C71.5288 6.87468 72.471 6.87468 72.7972 7.53513L74.1439 10.2649C74.2737 10.5271 74.5243 10.7094 74.8132 10.7511L77.8257 11.1885C78.5555 11.2951 78.8461 12.1911 78.319 12.7049L76.1386 14.8302C75.9297 15.0338 75.8337 15.328 75.8835 15.6169L76.3981 18.6169C76.5226 19.3431 75.7599 19.8969 75.1083 19.5538L72.4132 18.1378C72.1546 18.0009 71.8452 18.0009 71.5866 18.1378L68.8915 19.5538C68.2399 19.8969 67.4772 19.3431 67.6017 18.6169L68.1163 15.6169C68.1661 15.328 68.0701 15.0338 67.8612 14.8302L65.6808 12.7049C65.1537 12.1911 65.4443 11.2951 66.1741 11.1885L69.1866 10.7511C69.4755 10.7094 69.7261 10.5271 69.8559 10.2649L71.2026 7.53513Z" fill="#DDDDDD"/>
<g clip-path="url(#clip0_104_225)">
<path d="M7.20257 7.53513C7.52879 6.87468 8.47101 6.87468 8.79724 7.53513L10.1439 10.2649C10.2737 10.5271 10.5243 10.7094 10.8132 10.7511L13.8257 11.1885C14.5555 11.2951 14.8461 12.1911 14.319 12.7049L12.1386 14.8302C11.9297 15.0338 11.8337 15.328 11.8835 15.6169L12.3981 18.6169C12.5226 19.3431 11.7599 19.8969 11.1083 19.5538L8.41324 18.1378C8.15457 18.0009 7.84524 18.0009 7.58657 18.1378L4.89146 19.5538C4.2399 19.8969 3.47724 19.3431 3.60168 18.6169L4.11635 15.6169C4.16612 15.328 4.07012 15.0338 3.86124 14.8302L1.68079 12.7049C1.15368 12.1911 1.44435 11.2951 2.17412 11.1885L5.18657 10.7511C5.47546 10.7094 5.72612 10.5271 5.8559 10.2649L7.20257 7.53513Z" fill="#FFCF29"/>
<path d="M23.2026 7.53513C23.5288 6.87468 24.471 6.87468 24.7972 7.53513L26.1439 10.2649C26.2737 10.5271 26.5243 10.7094 26.8132 10.7511L29.8257 11.1885C30.5555 11.2951 30.8461 12.1911 30.319 12.7049L28.1386 14.8302C27.9297 15.0338 27.8337 15.328 27.8835 15.6169L28.3981 18.6169C28.5226 19.3431 27.7599 19.8969 27.1083 19.5538L24.4132 18.1378C24.1546 18.0009 23.8452 18.0009 23.5866 18.1378L20.8915 19.5538C20.2399 19.8969 19.4772 19.3431 19.6017 18.6169L20.1163 15.6169C20.1661 15.328 20.0701 15.0338 19.8612 14.8302L17.6808 12.7049C17.1537 12.1911 17.4443 11.2951 18.1741 11.1885L21.1866 10.7511C21.4755 10.7094 21.7261 10.5271 21.8559 10.2649L23.2026 7.53513Z" fill="#FFCF29"/>
<path d="M39.2026 7.53513C39.5288 6.87468 40.471 6.87468 40.7972 7.53513L42.1439 10.2649C42.2737 10.5271 42.5243 10.7094 42.8132 10.7511L45.8257 11.1885C46.5555 11.2951 46.8461 12.1911 46.319 12.7049L44.1386 14.8302C43.9297 15.0338 43.8337 15.328 43.8835 15.6169L44.3981 18.6169C44.5226 19.3431 43.7599 19.8969 43.1083 19.5538L40.4132 18.1378C40.1546 18.0009 39.8452 18.0009 39.5866 18.1378L36.8915 19.5538C36.2399 19.8969 35.4772 19.3431 35.6017 18.6169L36.1163 15.6169C36.1661 15.328 36.0701 15.0338 35.8612 14.8302L33.6808 12.7049C33.1537 12.1911 33.4443 11.2951 34.1741 11.1885L37.1866 10.7511C37.4755 10.7094 37.7261 10.5271 37.8559 10.2649L39.2026 7.53513Z" fill="#FFCF29"/>
<path d="M55.2026 7.53513C55.5288 6.87468 56.471 6.87468 56.7972 7.53513L58.1439 10.2649C58.2737 10.5271 58.5243 10.7094 58.8132 10.7511L61.8257 11.1885C62.5555 11.2951 62.8461 12.1911 62.319 12.7049L60.1386 14.8302C59.9297 15.0338 59.8337 15.328 59.8835 15.6169L60.3981 18.6169C60.5226 19.3431 59.7599 19.8969 59.1083 19.5538L56.4132 18.1378C56.1546 18.0009 55.8452 18.0009 55.5866 18.1378L52.8915 19.5538C52.2399 19.8969 51.4772 19.3431 51.6017 18.6169L52.1163 15.6169C52.1661 15.328 52.0701 15.0338 51.8612 14.8302L49.6808 12.7049C49.1537 12.1911 49.4443 11.2951 50.1741 11.1885L53.1866 10.7511C53.4755 10.7094 53.7261 10.5271 53.8559 10.2649L55.2026 7.53513Z" fill="#FFCF29"/>
<path d="M71.2026 7.53513C71.5288 6.87468 72.471 6.87468 72.7972 7.53513L74.1439 10.2649C74.2737 10.5271 74.5243 10.7094 74.8132 10.7511L77.8257 11.1885C78.5555 11.2951 78.8461 12.1911 78.319 12.7049L76.1386 14.8302C75.9297 15.0338 75.8337 15.328 75.8835 15.6169L76.3981 18.6169C76.5226 19.3431 75.7599 19.8969 75.1083 19.5538L72.4132 18.1378C72.1546 18.0009 71.8452 18.0009 71.5866 18.1378L68.8915 19.5538C68.2399 19.8969 67.4772 19.3431 67.6017 18.6169L68.1163 15.6169C68.1661 15.328 68.0701 15.0338 67.8612 14.8302L65.6808 12.7049C65.1537 12.1911 65.4443 11.2951 66.1741 11.1885L69.1866 10.7511C69.4755 10.7094 69.7261 10.5271 69.8559 10.2649L71.2026 7.53513Z" fill="#FFCF29"/>
</g>
<defs>
<clipPath id="clip0_104_225">
<rect width="80" height="16" fill="white" transform="translate(0 5.91992)"/>
</clipPath>
</defs>
</svg>
